<?xml version="1.0" encoding="utf-8"?>
<!-- Generator: Adobe Illustrator 15.0.2, SVG Export Plug-In  -->
<!DOCTYPE svg PUBLIC "-//W3C//DTD SVG 1.1//EN" "http://www.w3.org/Graphics/SVG/1.1/DTD/svg11.dtd" [
	<!ENTITY ns_flows "http://ns.adobe.com/Flows/1.0/">
]>
<svg version="1.1"
	 xmlns="http://www.w3.org/2000/svg" xmlns:xlink="http://www.w3.org/1999/xlink" xmlns:a="http://ns.adobe.com/AdobeSVGViewerExtensions/3.0/"
	 x="0px" y="0px" width="256px" height="256px" viewBox="0.384 0.754 256 256"
	 overflow="visible" enable-background="new 0.384 0.754 256 256" xml:space="preserve">
<defs>
</defs>
<path fill="#AFB7BA" d="M166.847,96.011l52.365-5.424c0,0-42.978-0.244-43.158-4.612c-0.192-4.364,27.481-22.563,27.481-22.563
	s-30.624,9.581-34.76,4.91c-3.642-4.07,32.635-39.489,41.492-48.021c-7.927,7.534-43.747,38.276-48.028,35.809
	c-4.938-2.864,15.343-28.365,15.343-28.365s-21.385,20.461-33.817,15.748c-12.428-4.726-9.945-34.159-9.945-34.159
	s-7.389,23.235-18.278,24.123C107.391,34.12,105.25,11.364,105.513,0c-0.479,9.588-1.689,26.534-4.498,26.962
	C97.107,27.548,89.05,12.585,89.05,12.585s2.989,19.562-3.433,22.893c-6.415,3.327-21.294-17.932-21.294-17.932
	s8.461,24.574-0.79,33.711c-9.231,9.125-36.81-1.991-36.81-1.991s21.117,13.567,17.92,20.697c-1.092,2.4-4.938,2.757-9.506,2.219
	c3.767,1.5,6.501,3.205,6.289,4.91C40.774,82.373,0,76.712,0,76.712l58.187,13.843c-0.459-1.956-2.974-8.874-12.664-15.874
	c0,0,18.407,12.036,22.567,6.615c4.132-5.425-15.182-20.238-15.182-20.238s15.61,3.52,10.893-5.043c0,0,11.16,11.466,15.815,8.229
	c4.702-3.272,3.645-22.559,3.645-22.559s7.114,20.968,13.623,19.374c6.493-1.563,4.419-27.096,4.419-27.096
	s5.66,24.566,12.664,25.175c7.031,0.558,14.023-29.963,14.023-29.963s-3.956,25.002,2.27,27.363
	c5.692,2.188,15.312-5.487,16.777-7.911c0.146-0.208-2.569,3.225-2.569,3.225s-0.094,0.157-0.22,0.365
	c-1.571,2.632-4.965,10.414-0.318,15.469c5.036,5.479,21.126-4.431,21.126-4.431s-16.636,13.273-13.34,18.824
	c3.283,5.535,14.974-0.53,14.974-0.53S158.712,89.463,166.847,96.011"/>
<radialGradient id="SVGID_1_" cx="-3698.6621" cy="717.5" r="744.2507" gradientTransform="matrix(0.336 0 0 0.336 1395.063 -1.2106)" gradientUnits="userSpaceOnUse">
	<stop  offset="0" style="stop-color:#222222"/>
	<stop  offset="0.5337" style="stop-color:#808080"/>
</radialGradient>
<path fill="url(#SVGID_1_)" d="M61.604,142.987l52.884,20.575c-0.098-1.174-0.224-2.259-0.428-3.06
	c-0.42-1.198-2.895-4.431-6.034-7.923c-1.033-1.171-2.152-2.361-3.292-3.552l-50.527-15.146
	C56.777,136.612,59.275,139.641,61.604,142.987z"/>
<radialGradient id="SVGID_2_" cx="-3698.6094" cy="717.5508" r="744.5497" gradientTransform="matrix(0.336 0 0 0.336 1395.063 -1.2106)" gradientUnits="userSpaceOnUse">
	<stop  offset="0" style="stop-color:#222222"/>
	<stop  offset="0.5337" style="stop-color:#808080"/>
</radialGradient>
<path fill="url(#SVGID_2_)" d="M90.731,215.677c-0.047-0.142-0.106-0.271-0.169-0.42c-0.062-0.157-0.157-0.295-0.228-0.437
	c-0.086-0.157-0.142-0.286-0.232-0.443c-0.086-0.142-0.181-0.318-0.275-0.483c-0.083-0.161-0.177-0.295-0.271-0.452
	c-0.118-0.168-0.232-0.325-0.35-0.514c-0.126-0.169-0.228-0.326-0.334-0.495c-0.149-0.181-0.283-0.361-0.42-0.569
	c-0.125-0.165-0.275-0.334-0.404-0.499c-0.165-0.209-0.354-0.413-0.499-0.605c-0.157-0.196-0.311-0.361-0.467-0.538
	c-0.205-0.235-0.42-0.499-0.648-0.746c-0.137-0.157-0.302-0.307-0.459-0.483c-0.389-0.428-0.809-0.849-1.269-1.323
	C79.43,202.42,70.804,201.3,64.5,201.3c-0.467,0-0.951,0.016-1.402,0.031c-0.083,0-0.177,0-0.271,0
	c-0.958,0.032-1.862,0.079-2.703,0.138c0,0-0.008,0-0.016,0c-0.42,0.031-0.864,0.063-1.245,0.118l0.023,0.656
	c6.843,0.923,20.752,3.904,31.939,13.642C90.794,215.826,90.763,215.756,90.731,215.677z"/>
<radialGradient id="SVGID_3_" cx="-3699.3706" cy="717.6055" r="740.8196" gradientTransform="matrix(0.336 0 0 0.336 1395.063 -1.2106)" gradientUnits="userSpaceOnUse">
	<stop  offset="0" style="stop-color:#222222"/>
	<stop  offset="0.5337" style="stop-color:#808080"/>
</radialGradient>
<path fill="url(#SVGID_3_)" d="M101.475,236.461v0.396l3.775,2.545c-0.063-0.148-0.126-0.302-0.165-0.451L101.475,236.461z"/>
<radialGradient id="SVGID_4_" cx="-3698.6714" cy="716.9893" r="743.2657" gradientTransform="matrix(0.336 0 0 0.336 1395.063 -1.2106)" gradientUnits="userSpaceOnUse">
	<stop  offset="0" style="stop-color:#222222"/>
	<stop  offset="0.5337" style="stop-color:#808080"/>
</radialGradient>
<polygon fill="url(#SVGID_4_)" points="134.066,112.187 88.787,106.774 72.222,107.54 108.224,114.575 "/>
<radialGradient id="SVGID_5_" cx="-3698.7065" cy="717.6436" r="744.3223" gradientTransform="matrix(0.336 0 0 0.336 1395.063 -1.2106)" gradientUnits="userSpaceOnUse">
	<stop  offset="0" style="stop-color:#222222"/>
	<stop  offset="0.5337" style="stop-color:#808080"/>
</radialGradient>
<path fill="url(#SVGID_5_)" d="M147.276,191.881c-0.109-3.634,0.755-6.883,2.134-9.684l-18.254,2.286
	c-0.684,0.806-1.316,1.615-1.921,2.455c-0.133,0.169-0.267,0.357-0.42,0.543c-0.577,0.809-1.155,1.638-1.673,2.479
	c-0.086,0.137-0.181,0.271-0.267,0.428c-0.483,0.77-0.927,1.524-1.379,2.286c-0.066,0.173-0.177,0.326-0.255,0.499
	c-0.468,0.856-0.919,1.705-1.34,2.569c-0.094,0.208-0.185,0.42-0.279,0.612c-0.396,0.821-0.778,1.654-1.131,2.502
	c-0.035,0.06-0.067,0.122-0.083,0.185c-0.365,0.896-0.695,1.8-1.045,2.68c-0.07,0.216-0.153,0.428-0.224,0.651
	c-0.322,0.864-0.593,1.736-0.888,2.608c-0.032,0.157-0.079,0.295-0.126,0.444c-0.239,0.809-0.452,1.579-0.66,2.368
	c-0.047,0.192-0.102,0.381-0.149,0.55c-0.236,0.864-0.444,1.729-0.64,2.569c-0.043,0.196-0.067,0.396-0.122,0.602
	c-0.165,0.793-0.357,1.578-0.491,2.341c-0.023,0.102-0.032,0.196-0.055,0.299c-0.157,0.84-0.294,1.665-0.42,2.49
	c-0.031,0.192-0.062,0.381-0.094,0.581c-0.125,0.81-0.231,1.626-0.326,2.416c0,0.09-0.032,0.185-0.04,0.295
	c-0.086,0.746-0.157,1.449-0.232,2.148c0,0.149-0.023,0.302-0.031,0.451c-0.063,0.755-0.149,1.485-0.188,2.196
	c0,0.146-0.023,0.295-0.023,0.42c-0.04,0.645-0.071,1.309-0.102,1.944c0,0.087,0,0.142,0,0.204
	c-0.032,0.668-0.043,1.336-0.059,1.984c-0.016,0.039-0.016,0.102-0.016,0.165l40.212-13.227l11.706-3.846l-3.484-1.83
	c-0.149,0.016-0.291,0.016-0.421,0.016C156.445,210.562,147.729,205.668,147.276,191.881z"/>
<radialGradient id="SVGID_6_" cx="-3698.7197" cy="717.5391" r="744.4208" gradientTransform="matrix(0.336 0 0 0.336 1395.063 -1.2106)" gradientUnits="userSpaceOnUse">
	<stop  offset="0" style="stop-color:#222222"/>
	<stop  offset="0.5337" style="stop-color:#808080"/>
</radialGradient>
<path fill="url(#SVGID_6_)" d="M191.7,131.14l-1.049,32.454c-0.008,0.264-0.04,0.511-0.095,0.747
	c18.16-4.981,47.719-14.33,54.66-18.961c-0.209-0.071-0.444-0.165-0.724-0.26C242.463,144.374,220.886,137.767,191.7,131.14z"/>
<linearGradient id="SVGID_7_" gradientUnits="userSpaceOnUse" x1="196.3799" y1="268.7871" x2="99.0717" y2="74.1704">
	<stop  offset="0" style="stop-color:#242728"/>
	<stop  offset="1" style="stop-color:#849499"/>
</linearGradient>
<path fill="url(#SVGID_7_)" d="M248.183,134.892c-2.483-0.888-25.258-7.916-56.121-14.821l0.208-6.882
	c0.094-2.801-1.976-5.228-4.788-5.558l-1.324-0.153l0,0L89.628,95.924c-0.295-0.039-0.609-0.039-0.88-0.031l-62.119,2.872l0,0
	l-1.285,0.055c-1.477,0.071-2.848,0.727-3.838,1.838c-0.97,1.096-1.438,2.569-1.332,4.038l1.3,15.603
	c0.157,1.929,1.339,3.618,3.083,4.458l0.334,0.165l0,0l0.228,0.122l0,0c0.008,0,0.008,0,0.008,0
	c2.966,1.56,18.286,10.099,28.396,25.403c3.948,5.939,6.646,12.213,8.041,18.667c1.237,5.703,0.809,9.883-1.261,12.452
	c-2.777,3.448-8.477,3.979-11.584,3.979c-1.866,0-3.119-0.189-3.119-0.189c-1.567-0.255-3.178,0.283-4.368,1.309
	c-0.42,0.357-0.746,0.785-1.029,1.237c-0.062,0.094-0.114,0.204-0.169,0.299c-0.094,0.153-0.165,0.294-0.251,0.451
	c-0.114,0.279-0.2,0.573-0.271,0.903c-0.023,0.067-0.031,0.161-0.062,0.248c-0.063,0.334-0.118,0.684-0.118,1.033v9.64
	c0,1.76,0.872,3.44,2.322,4.442l8.834,6.19l0,0l0.911,0.645c0.872,0.593,1.877,0.942,2.934,0.974
	c0.255,0.008,24.794,1.167,36.104,19.244l0.279,8.033c0.063,1.744,0.951,3.339,2.4,4.316l14.79,9.981l0,0c0,0,0.023,0,0.023,0.016
	l0.153,0.095c0.903,0.604,1.956,0.911,3.013,0.911c0.585,0,1.214-0.094,1.784-0.298l71.857-25.034
	c2.195-0.763,3.649-2.809,3.649-5.13v-11.07c0-2.03-1.151-3.873-2.95-4.808l-0.558-0.322l0,0l-16.317-8.453
	c-1.061-0.55-2.188-0.754-3.347-0.55c-0.016,0-0.299,0.039-0.724,0.039c-2.64,0-6.119-0.849-6.355-8.182
	c-0.161-5.449,5.091-10.006,7.031-11.506c9.216-0.982,18.572-2.608,23.377-3.861c3.075-0.802,18.823-5.138,34.115-10.143
	c28.616-9.396,32.097-13.359,33.357-16.867C257.657,144.531,257.641,138.34,248.183,134.892z M108.027,152.58
	c3.139,3.492,5.613,6.725,6.034,7.923c0.204,0.801,0.33,1.886,0.428,3.06l-52.884-20.575c-2.329-3.347-4.828-6.375-7.396-9.105
	l50.527,15.146C105.875,150.219,106.994,151.409,108.027,152.58z M88.787,106.774l45.279,5.413l-25.843,2.388l-36.001-7.035
	L88.787,106.774z M58.886,202.243l-0.023-0.656c0.381-0.055,0.825-0.087,1.245-0.118c0.008,0,0.016,0,0.016,0
	c0.841-0.059,1.744-0.105,2.703-0.138c0.094,0,0.188,0,0.271,0c0.452-0.016,0.935-0.031,1.402-0.031
	c6.305,0,14.931,1.12,20.207,6.368c0.459,0.475,0.88,0.896,1.269,1.323c0.157,0.177,0.322,0.326,0.459,0.483
	c0.228,0.247,0.444,0.511,0.648,0.746c0.157,0.177,0.31,0.342,0.467,0.538c0.146,0.192,0.334,0.396,0.499,0.605
	c0.129,0.165,0.279,0.334,0.404,0.499c0.138,0.208,0.271,0.389,0.42,0.569c0.106,0.169,0.208,0.326,0.334,0.495
	c0.118,0.188,0.232,0.346,0.35,0.514c0.094,0.157,0.188,0.291,0.271,0.452c0.094,0.165,0.188,0.342,0.275,0.483
	c0.09,0.157,0.146,0.286,0.232,0.443c0.071,0.142,0.165,0.279,0.228,0.437c0.063,0.149,0.122,0.278,0.169,0.42
	c0.032,0.079,0.063,0.149,0.094,0.208C79.639,206.147,65.729,203.166,58.886,202.243z M101.475,236.857v-0.396l3.61,2.49
	c0.039,0.149,0.102,0.303,0.165,0.451L101.475,236.857z M164.489,210.562c0.13,0,0.271,0,0.421-0.016l3.484,1.83l-11.706,3.846
	l-40.212,13.227c0-0.063,0-0.126,0.016-0.165c0.016-0.648,0.027-1.316,0.059-1.984c0-0.062,0-0.117,0-0.204
	c0.031-0.636,0.062-1.3,0.102-1.944c0-0.125,0.023-0.274,0.023-0.42c0.039-0.711,0.125-1.441,0.188-2.196
	c0.008-0.149,0.031-0.302,0.031-0.451c0.075-0.699,0.146-1.402,0.232-2.148c0.008-0.11,0.04-0.205,0.04-0.295
	c0.094-0.79,0.2-1.606,0.326-2.416c0.032-0.2,0.063-0.389,0.094-0.581c0.126-0.825,0.263-1.65,0.42-2.49
	c0.023-0.103,0.032-0.197,0.055-0.299c0.133-0.763,0.326-1.548,0.491-2.341c0.055-0.205,0.079-0.405,0.122-0.602
	c0.196-0.841,0.404-1.705,0.64-2.569c0.047-0.169,0.102-0.357,0.149-0.55c0.208-0.789,0.42-1.56,0.66-2.368
	c0.047-0.149,0.094-0.287,0.126-0.444c0.294-0.872,0.565-1.744,0.888-2.608c0.071-0.224,0.153-0.436,0.224-0.651
	c0.35-0.88,0.68-1.783,1.045-2.68c0.016-0.062,0.047-0.125,0.083-0.185c0.354-0.848,0.735-1.681,1.131-2.502
	c0.094-0.192,0.185-0.404,0.279-0.612c0.42-0.864,0.872-1.713,1.34-2.569c0.078-0.173,0.188-0.326,0.255-0.499
	c0.452-0.762,0.896-1.517,1.379-2.286c0.086-0.157,0.181-0.291,0.267-0.428c0.519-0.841,1.096-1.67,1.673-2.479
	c0.153-0.186,0.287-0.374,0.42-0.543c0.605-0.84,1.238-1.649,1.921-2.455l18.254-2.286c-1.379,2.801-2.243,6.05-2.134,9.684
	C147.729,205.668,156.445,210.562,164.489,210.562z M190.557,164.341c0.055-0.236,0.087-0.483,0.095-0.747l1.049-32.454
	c29.186,6.627,50.763,13.234,52.793,13.98c0.279,0.095,0.515,0.188,0.724,0.26C238.275,150.011,208.717,159.359,190.557,164.341z"/>
<polygon fill="#FFFFFF" points="107.414,120.125 185.513,112.871 88.995,101.318 26.856,104.193 107.414,119.945 "/>
<path fill="#FFFFFF" d="M119.356,159.179c-1.1-4.336-11.726-14.954-11.726-14.954l-79.965-23.973
	c3.626,1.913,19.633,10.913,30.404,27.174l61.899,24.131C119.969,171.557,120.42,163.523,119.356,159.179z"/>
<path fill="#FFFFFF" d="M111.158,236.523l0.373,0.256v0.023l70.843-23.29l-16.337-8.477c0,0-12.845,2.148-13.328-13.328
	c-0.302-8.937,4.098-11.356,4.098-11.356l-28.369-1.01C110.349,199.104,110.706,228.651,111.158,236.523z"/>
<path fill="#FFFFFF" d="M246.34,139.998c-3.574-1.292-38.036-11.698-79.01-19.507l-31.527,2.927c0,0-19.189,0.982-16.899,22.441
	c2.267,21.448,19.173,29.257,30.227,29.583c11.069,0.342,30.568-2.593,38.04-4.557c7.479-1.937,61.389-17.013,63.722-23.561
	C252.511,142.771,249.918,141.29,246.34,139.998z"/>
<path fill="#FFFFFF" d="M111.189,236.912c-0.023-0.133-0.023-0.255-0.031-0.389l-14.79-10.15
	c-0.228-5.629,4.109-10.617-7.809-22.543c-11.721-11.71-34.481-7.114-35.282-6.945v0.016c-0.039-0.016-0.039-0.016-0.039-0.016
	l-8.461-6.049v9.64l8.827,6.124v0.062l0.919,0.641c0,0,28.613,0.97,41.292,23.093l0.326,9.42l14.817,9.981l0.573-12.994
	L111.189,236.912z"/>
<path fill="#AFB7BA" d="M148.443,176.321c0,0-8.548-4.273-9.898-13.057c0,0,6.029,11.273,15.386,12.02
	C153.931,175.284,151.394,176.29,148.443,176.321z"/>
<path fill="#AFB7BA" d="M155.573,176.015c0,0-7.161-3.586-8.281-10.967c0,0,5.036,9.451,12.885,10.075
	C160.177,175.123,158.067,175.964,155.573,176.015z"/>
<path fill="#AFB7BA" d="M161.717,175.315c0,0-5.527-2.77-6.399-8.469c0,0,3.893,7.303,9.942,7.793
	C165.26,174.64,163.649,175.284,161.717,175.315z"/>
<path fill="#AFB7BA" d="M166.949,174.911c0,0-4.393-2.188-5.1-6.701c0,0,3.096,5.782,7.916,6.155
	C169.766,174.365,168.465,174.896,166.949,174.911z"/>
<path fill="#878E91" d="M90.92,151.755c0,0-0.302-6.214-4.065-9.172l2.703,0.966C90.437,144.971,91.977,148.196,90.92,151.755z"/>
<path fill="#878E91" d="M86.297,148.259c0,0-0.259-4.431-2.805-6.905l1.87,0.667C86.038,143.274,87.051,145.666,86.297,148.259z"/>
<path fill="#878E91" d="M98.796,154.682c0,0-0.302-6.23-4.038-9.196l2.679,0.99C98.305,147.901,99.856,151.13,98.796,154.682z"/>
<path fill="#878E91" d="M94.172,151.193c0,0-0.231-4.447-2.809-6.906l1.874,0.672C93.941,146.204,94.95,148.577,94.172,151.193z"/>
<path fill="#878E91" d="M82.918,149.162c0,0-0.306-6.229-4.042-9.195l2.671,0.989C82.436,142.374,83.975,145.604,82.918,149.162z"/>
<path fill="#878E91" d="M74.603,146.569c0,0-0.342-6.214-4.054-9.172l2.667,0.95C74.088,139.79,75.647,143.019,74.603,146.569z"/>
<path fill="#878E91" d="M78.287,145.674c0,0-0.228-4.446-2.805-6.905l1.87,0.68C78.067,140.693,79.065,143.065,78.287,145.674z"/>
<path fill="#AFB7BA" d="M235.978,143.953l-78.146-14.868c0.078-0.008,0.117-0.016,0.173-0.039l-0.928-0.094l-17.048-3.245
	l-2.203,1.402l-0.169-0.023c-1.941,1.143-8.183,5.315-9.31,12.735c0,0,4.435-8.237,11.58-11.093l2.424,0.444
	c-2.102,1.783-4.615,4.726-5.271,8.858c0,0,2.95-5.504,7.849-8.375l3.331,0.589c-1.371,1.395-2.75,3.387-3.139,5.979
	c0,0,1.807-3.362,4.859-5.668l3.292,0.609c-0.724,0.974-1.379,2.211-1.596,3.696c0,0,0.994-1.819,2.707-3.492l80.585,14.624
	C237.977,145.309,235.978,143.953,235.978,143.953z"/>
<linearGradient id="SVGID_8_" gradientUnits="userSpaceOnUse" x1="182.1172" y1="221.4736" x2="94.6459" y2="52.2723">
	<stop  offset="0" style="stop-color:#242728"/>
	<stop  offset="1" style="stop-color:#243446"/>
</linearGradient>
<path fill="url(#SVGID_8_)" d="M146.248,175.206c0,0,6.308,1.115,23.485-1.128l0.157,1.128l-22.566,2.407L146.248,175.206z"/>
</svg>
