<?xml version="1.0" encoding="UTF-8" standalone="no"?>
<!-- Generator: Adobe Illustrator 16.0.0, SVG Export Plug-In . SVG Version: 6.00 Build 0)  -->

<svg
   xmlns:dc="http://purl.org/dc/elements/1.1/"
   xmlns:cc="http://creativecommons.org/ns#"
   xmlns:rdf="http://www.w3.org/1999/02/22-rdf-syntax-ns#"
   xmlns:svg="http://www.w3.org/2000/svg"
   xmlns="http://www.w3.org/2000/svg"
   xmlns:sodipodi="http://sodipodi.sourceforge.net/DTD/sodipodi-0.dtd"
   xmlns:inkscape="http://www.inkscape.org/namespaces/inkscape"
   version="1.1"
   id="Layer_1"
   x="0px"
   y="0px"
   width="77.5"
   height="77.5"
   viewBox="0 0 77.499997 77.5"
   enable-background="new 0 0 322.131 77.5"
   xml:space="preserve"
   inkscape:version="0.48.5 r10040"
   sodipodi:docname="icon.svg"><metadata
     id="metadata3373"><rdf:RDF><cc:Work
         rdf:about=""><dc:format>image/svg+xml</dc:format><dc:type
           rdf:resource="http://purl.org/dc/dcmitype/StillImage" /></cc:Work></rdf:RDF></metadata><defs
     id="defs3371" /><sodipodi:namedview
     pagecolor="#ffffff"
     bordercolor="#666666"
     borderopacity="1"
     objecttolerance="10"
     gridtolerance="10"
     guidetolerance="10"
     inkscape:pageopacity="0"
     inkscape:pageshadow="2"
     inkscape:window-width="1012"
     inkscape:window-height="760"
     id="namedview3369"
     showgrid="false"
     inkscape:zoom="0.93750676"
     inkscape:cx="163.19882"
     inkscape:cy="38.75"
     inkscape:window-x="325"
     inkscape:window-y="138"
     inkscape:window-maximized="0"
     inkscape:current-layer="Layer_1" /><linearGradient
     id="SVGID_1_"
     gradientUnits="userSpaceOnUse"
     x1="-189.84911"
     y1="135.8701"
     x2="-127.186"
     y2="135.8701"
     gradientTransform="matrix(1,0,0,-1,198.26664,182.5)"><stop
       offset="0"
       style="stop-color:#FDFDFD"
       id="stop3201" /><stop
       offset="0.1452"
       style="stop-color:#F4F5F5"
       id="stop3203" /><stop
       offset="0.6844"
       style="stop-color:#D9DBDB"
       id="stop3205" /><stop
       offset="1"
       style="stop-color:#CFD1D1"
       id="stop3207" /></linearGradient><path
     d="m 71.080636,34.438 c -7.205,5 -14.688,3.682 -23.183,-3.358 -4.897,-4.059 -11.15,-2.771 -15.411,-1.454 -2.648,0.82 -6.324,0.744 -9.518,0.075 -13.9780001,-2.93 -10.929,6.038 -8.339,14.015 4.757,14.64 -3.236,18.031 -5.9830001,12.815 -1.766,6.615 7.1380001,8.572 10.9370001,7.701 6.006,-1.377 14.051,-2.153 19.043,-0.627 9.544,2.916 13.125,0.513 11.542,-2.57 -0.52,-1.012 -0.229,-2.446 0.583,-3.126 2.834,-2.374 5.295,-0.373 8.007,-1.947 2.108,-1.226 2.077,-3.927 -1.19,-5.463 -1.731,-0.813 -1.649,-2.881 0.184,-3.84 3.73,-1.952 8.75,-1.036 10,-5.138 0.447,-1.469 1.699,-5.159 3.328,-7.083 z"
     id="path3209"
     inkscape:connector-curvature="0"
     style="fill:url(#SVGID_1_)" /><linearGradient
     id="SVGID_2_"
     gradientUnits="userSpaceOnUse"
     x1="36.190399"
     y1="47.216801"
     x2="27.9168"
     y2="47.216801"
     gradientTransform="translate(4.2666359,0)"><stop
       offset="0"
       style="stop-color:#E6E6E6"
       id="stop3212" /><stop
       offset="1"
       style="stop-color:#B2B3B3"
       id="stop3214" /></linearGradient><path
     d="m 35.127636,32.645 c 0,4.983 0.741,22.798 4.538,30.405 l -8.734,-0.194 V 31.383 l 4.196,1.262 z"
     id="path3216"
     inkscape:connector-curvature="0"
     style="fill:url(#SVGID_2_)" /><linearGradient
     id="SVGID_3_"
     gradientUnits="userSpaceOnUse"
     x1="-356.99219"
     y1="766.71289"
     x2="-349.99191"
     y2="747.21222"
     gradientTransform="translate(392.26664,-713.5)"><stop
       offset="0"
       style="stop-color:#F6F6F6"
       id="stop3219" /><stop
       offset="1"
       style="stop-color:#B2B3B3"
       id="stop3221" /></linearGradient><path
     d="m 15.500636,44.396 c -2.762,-7.458 -6.5090001,-16.625 7.469,-13.695 3.193,0.669 6.869,0.745 9.518,-0.075 4.261,-1.317 9.972,-2.444 14.514,1.521 8.875,7.748 16.875,8.292 24.08,3.292 -1.63,1.924 -3.106,5.563 -3.33,7.083 -0.189,1.293 -1.134,1.873 -2.382,2.379 -18.519,7.519 -15.394,-5.307 -21.352,-9.481 -3.158,-2.214 -7.733,-2.09 -11.247,-0.812 -3.171,1.153 -6.437,0.864 -9.833,-0.396 -5.667,-2.107 -9.475,-0.995 -7.437,10.184 z"
     id="path3223"
     inkscape:connector-curvature="0"
     style="fill:url(#SVGID_3_)" /><g
     id="g3225"
     style="opacity:0.75"
     transform="translate(4.2666359,0)"><path
       d="m 35.561,30.336 c 2.719,0 4.941,0.747 6.795,2.284 5.541,4.592 10.63,6.823 15.557,6.823 1.473,0 2.934,-0.206 4.373,-0.615 -0.317,0.854 -0.559,1.602 -0.714,2.111 -0.432,1.414 -1.598,1.811 -4.357,2.437 -1.463,0.332 -3.121,0.708 -4.656,1.513 -1.577,0.824 -2.536,2.322 -2.503,3.908 0.032,1.51 0.928,2.822 2.396,3.514 1.153,0.541 1.478,1.135 1.487,1.373 0.012,0.26 -0.343,0.487 -0.45,0.551 -0.597,0.346 -1.181,0.412 -2.051,0.412 -0.16,0 -0.321,-0.002 -0.482,-0.004 -0.179,-0.002 -0.356,-0.004 -0.535,-0.004 -1.632,0 -3.393,0.211 -5.219,1.74 -1.545,1.294 -2.019,3.742 -1.078,5.573 0.137,0.267 0.141,0.405 0.149,0.407 -0.093,0.127 -0.771,0.567 -2.586,0.567 -1.776,0 -4.107,-0.426 -6.741,-1.229 -2.005,-0.613 -4.512,-0.924 -7.451,-0.924 -3.827,0 -8.428,0.553 -12.624,1.515 -0.412,0.094 -0.934,0.144 -1.509,0.144 -1.875,0 -4.187,-0.543 -5.673,-1.594 1.674,-0.011 3.264,-0.886 4.366,-2.404 1.341,-1.844 3.15,-6.289 0.213,-15.33 l -0.081,-0.25 C 10.909,38.918 9.317,34.02 10.646,32.191 11.154,31.492 12.282,31.138 14,31.138 c 1.188,0 2.632,0.177 4.295,0.525 1.76,0.369 3.618,0.563 5.375,0.563 1.944,0 3.676,-0.231 5.144,-0.686 1.664,-0.519 4.176,-1.204 6.747,-1.204 m 0,-2 c -2.663,0 -5.243,0.641 -7.34,1.29 -1.324,0.41 -2.904,0.596 -4.553,0.596 -1.649,0 -3.367,-0.187 -4.965,-0.521 -1.854,-0.389 -3.409,-0.568 -4.704,-0.568 -8.474,0 -5.881,7.664 -3.635,14.583 3.376,10.394 0.327,15.117 -2.708,15.117 -1.241,0 -2.479,-0.789 -3.276,-2.302 -1.506,5.643 4.751,7.896 8.98,7.896 0.729,0 1.397,-0.067 1.956,-0.194 C 19,63.389 23.45,62.77 27.493,62.77 c 2.549,0 4.936,0.246 6.866,0.836 3.037,0.929 5.472,1.318 7.326,1.318 3.975,0 5.295,-1.785 4.216,-3.888 -0.52,-1.013 -0.229,-2.446 0.583,-3.126 1.375,-1.152 2.663,-1.274 3.935,-1.274 0.34,0 0.679,0.009 1.018,0.009 1.005,0 2.011,-0.076 3.055,-0.682 2.108,-1.227 2.077,-3.927 -1.19,-5.463 -1.731,-0.814 -1.649,-2.881 0.184,-3.84 3.73,-1.952 8.75,-1.036 10,-5.139 0.448,-1.47 1.7,-5.159 3.33,-7.083 -2.906,2.017 -5.857,3.005 -8.902,3.005 -4.504,0 -9.211,-2.163 -14.28,-6.364 -2.489,-2.06 -5.325,-2.743 -8.073,-2.743 l 0,0 z m 31.253,6.102 h 0.005 -0.005 z"
       id="path3227"
       inkscape:connector-curvature="0"
       style="fill:#ffffff" /></g><line
     stroke-miterlimit="10"
     x1="32.770638"
     y1="63.160999"
     x2="32.770638"
     y2="31.938"
     id="line3229"
     style="fill:none;stroke:#ffffff;stroke-width:3.5;stroke-miterlimit:10" /><path
     stroke-miterlimit="10"
     d="m 71.080636,34.438 c -7.205,5 -14.688,3.682 -23.183,-3.358 -4.897,-4.059 -11.15,-2.771 -15.411,-1.454 -2.648,0.82 -6.324,0.744 -9.518,0.075 -13.9780001,-2.93 -10.929,6.038 -8.339,14.015 4.757,14.64 -3.236,18.031 -5.9830001,12.815 -1.766,6.615 7.1380001,8.572 10.9370001,7.701 6.006,-1.377 14.051,-2.153 19.043,-0.627 9.544,2.916 13.125,0.513 11.542,-2.57 -0.52,-1.012 -0.229,-2.446 0.583,-3.126 2.834,-2.374 5.295,-0.373 8.007,-1.947 2.108,-1.226 2.077,-3.927 -1.19,-5.463 -1.731,-0.813 -1.649,-2.881 0.184,-3.84 3.73,-1.952 8.75,-1.036 10,-5.138 0.447,-1.469 1.699,-5.159 3.328,-7.083 z"
     id="path3231"
     inkscape:connector-curvature="0"
     style="fill:none;stroke:#034672;stroke-width:2;stroke-linecap:round;stroke-linejoin:round;stroke-miterlimit:10" /><path
     d="m 15.500636,43.396 c -2.762,-7.458 -6.5090001,-16.625 7.469,-13.695 3.193,0.669 6.869,0.745 9.518,-0.075 4.261,-1.317 9.972,-2.444 14.514,1.521 8.875,7.748 16.875,8.292 24.08,3.292 -1.63,1.924 -3.106,5.563 -3.33,7.083 -0.189,1.293 -1.116,1.916 -2.382,2.379 -13.119,4.795 -14.124,-5.487 -20.082,-9.665 -3.158,-2.214 -9.003,-1.908 -12.517,-0.63 -3.171,1.153 -6.437,0.864 -9.833,-0.396 -5.667,-2.105 -9.475,-0.993 -7.437,10.186 z"
     id="path3233"
     inkscape:connector-curvature="0"
     style="fill:#034672" /><path
     d="m 37.751636,8.753 c -1.052,-0.594 -4.274,-2.612 -5.079,-3.064 -0.806,-0.453 -2.723,-1.881 -4.819,-1.881 -2.096,0 -4.014,1.428 -4.819,1.881 -0.805,0.452 -4.027,2.471 -5.079,3.064 -0.805,0.454 -3.724,2.037 -3.724,6.34 0,1.309 0,3.564 0,4.521 0,2.843 1.597,4.979 4.479,6.44 0.983,0.499 1.762,1.329 1.762,3.468 0,0.943 0.352,1.161 0.918,1.161 h 0.68 c 0.625,0 0.965,0.235 0.965,1.256 0,0.562 0,2.062 0,2.062 v 37.2 l 2.713,2.779 h 1.244 l 5.682,-5.819 v -34.16 c 0,0 0,-1.5 0,-2.062 0,-1.021 0.34,-1.256 0.965,-1.256 h 0.68 c 0.566,0 0.918,-0.218 0.918,-1.161 0,-2.139 0.778,-2.969 1.762,-3.468 2.882,-1.462 4.479,-3.598 4.479,-6.44 0,-0.956 0,-3.212 0,-4.521 -0.003,-4.303 -2.922,-5.886 -3.727,-6.34 z"
     id="path3235"
     inkscape:connector-curvature="0"
     style="fill:#ffffff" /><linearGradient
     id="SVGID_4_"
     gradientUnits="userSpaceOnUse"
     x1="-180.0332"
     y1="141.6543"
     x2="-149.19859"
     y2="149.3212"
     gradientTransform="matrix(1,0,0,-1,198.26664,182.5)"><stop
       offset="0"
       style="stop-color:#B8D7E9"
       id="stop3238" /><stop
       offset="0.3324"
       style="stop-color:#CCE3F1"
       id="stop3240" /><stop
       offset="0.6937"
       style="stop-color:#DAEBF7"
       id="stop3242" /><stop
       offset="1"
       style="stop-color:#DFEEF9"
       id="stop3244" /></linearGradient><path
     d="m 37.751636,8.753 c -1.052,-0.594 -4.274,-2.612 -5.079,-3.064 -0.806,-0.453 -2.723,-1.881 -4.819,-1.881 v 69.29 l 4.819,-4.936 v -34.16 c 0,0 0,-1.5 0,-2.062 0,-1.021 0.34,-1.256 0.965,-1.256 h 0.68 c 0.566,0 0.918,-0.218 0.918,-1.161 0,-2.139 0.778,-2.969 1.762,-3.468 2.882,-1.462 4.479,-3.598 4.479,-6.44 0,-0.956 0,-3.212 0,-4.521 -10e-4,-4.304 -2.92,-5.887 -3.725,-6.341 z"
     id="path3246"
     inkscape:connector-curvature="0"
     style="fill:url(#SVGID_4_)" /><linearGradient
     id="SVGID_5_"
     gradientUnits="userSpaceOnUse"
     x1="-177.0732"
     y1="165.8252"
     x2="-168.4482"
     y2="123.5749"
     gradientTransform="matrix(1,0,0,-1,198.26664,182.5)"><stop
       offset="0"
       style="stop-color:#F1F9FE"
       id="stop3249" /><stop
       offset="0.4254"
       style="stop-color:#E9F5FD"
       id="stop3251" /><stop
       offset="1"
       style="stop-color:#E4F3FD"
       id="stop3253" /></linearGradient><path
     d="m 27.853636,3.808 c -2.097,0 -4.014,1.428 -4.819,1.881 -0.805,0.452 -4.027,2.471 -5.079,3.064 -0.805,0.454 -3.724,2.037 -3.724,6.34 0,1.309 0,3.564 0,4.521 0,2.843 1.597,4.979 4.479,6.44 0.983,0.499 1.762,1.329 1.762,3.468 0,0.943 0.352,1.161 0.918,1.161 h 0.68 c 0.625,0 0.965,0.235 0.965,1.256 0,0.562 0,2.062 0,2.062 v 37.2 l 2.713,2.779 h 1.244 l 0.862,-0.883 -10e-4,-69.289 0,0 z"
     id="path3255"
     inkscape:connector-curvature="0"
     style="fill:url(#SVGID_5_)" /><path
     stroke-miterlimit="10"
     d="m 27.563636,3.808 c 1.908,0.938 3.431,1.966 4.236,2.419 0.805,0.452 4.027,2.471 5.079,3.064 0.805,0.454 3.724,2.037 3.724,6.34 0,1.309 0,2.806 0,3.762 0,2.843 -1.597,4.979 -4.479,6.44 -0.983,0.499 -1.762,1.431 -1.762,3.569 v 1.238"
     id="path3257"
     inkscape:connector-curvature="0"
     style="fill:none;stroke:#ffffff;stroke-width:2;stroke-miterlimit:10" /><path
     stroke-miterlimit="10"
     d="m 37.751636,8.753 c -1.052,-0.594 -4.274,-2.612 -5.079,-3.064 -0.806,-0.453 -2.723,-1.881 -4.819,-1.881 -2.096,0 -4.014,1.428 -4.819,1.881 -0.805,0.452 -4.027,2.471 -5.079,3.064 -0.805,0.454 -3.724,2.037 -3.724,6.34 0,1.309 0,3.564 0,4.521 0,2.843 1.597,4.979 4.479,6.44 0.983,0.499 1.762,1.329 1.762,3.468 0,0.943 0.352,1.161 0.918,1.161 h 0.68 c 0.625,0 0.965,0.235 0.965,1.256 0,0.562 0,2.062 0,2.062 v 37.2 l 2.713,2.779 h 1.244 l 5.682,-5.819 v -34.16 c 0,0 0,-1.5 0,-2.062 0,-1.021 0.34,-1.256 0.965,-1.256 h 0.68 c 0.566,0 0.918,-0.218 0.918,-1.161 0,-2.139 0.778,-2.969 1.762,-3.468 2.882,-1.462 4.479,-3.598 4.479,-6.44 0,-0.956 0,-3.212 0,-4.521 -0.003,-4.303 -2.922,-5.886 -3.727,-6.34 z"
     id="path3259"
     inkscape:connector-curvature="0"
     style="fill:none;stroke:#034672;stroke-width:2;stroke-miterlimit:10" /><path
     stroke-miterlimit="10"
     d="M 42.672636,34.001"
     id="path3261"
     inkscape:connector-curvature="0"
     style="fill:#e9f6fe;stroke:#034672;stroke-width:2;stroke-miterlimit:10" /><linearGradient
     id="SVGID_14_"
     gradientUnits="userSpaceOnUse"
     x1="-170.4106"
     y1="170.666"
     x2="-170.4106"
     y2="160.49809"
     gradientTransform="matrix(1,0,0,-1,194,182.5)"><stop
       offset="0"
       style="stop-color:#00639A"
       id="stop3338" /><stop
       offset="0.2355"
       style="stop-color:#00578A"
       id="stop3340" /><stop
       offset="0.507"
       style="stop-color:#004D7B"
       id="stop3342" /><stop
       offset="0.7167"
       style="stop-color:#004773"
       id="stop3344" /><stop
       offset="1"
       style="stop-color:#00446E"
       id="stop3346" /></linearGradient><polygon
     points="32.641,11.704 23.589,13.729 14.537,11.704 13.537,15.443 23.589,20.501 33.641,15.443 "
     id="polygon3348"
     style="fill:url(#SVGID_14_)"
     transform="translate(4.2666359,0)" /><polyline
     enable-background="new    "
     points="23.589,20.501 33.641,15.443 32.641,11.704 23.589,13.729 "
     id="polyline3350"
     style="opacity:0.2"
     transform="translate(4.2666359,0)" /><path
     d="m 22.937636,33.209 c 3.396,1.261 6.662,1.55 9.833,0.396 l -0.283,-2.223 c -2.648,0.82 -6.324,0.744 -9.518,0.075 l -0.032,1.752 z"
     id="path3352"
     inkscape:connector-curvature="0"
     style="fill:#034672" /><path
     d="m 27.582636,32.856 c -0.403,2.757 1.896,4.707 1.896,7.619 3.849,-4.335 -1.073,-5.797 -1.896,-7.619 z"
     id="path3354"
     inkscape:connector-curvature="0"
     style="fill:#034672" /><path
     d="m 27.535636,33.043 c -0.118,3.207 -0.402,5.581 -1.741,7.247 -2.419,-4.737 0.687,-6.32 1.741,-7.247 z"
     id="path3356"
     inkscape:connector-curvature="0"
     style="fill:#034672" /><circle
     cx="23.297001"
     cy="33.021"
     r="1.594"
     id="circle3358"
     sodipodi:cx="23.297001"
     sodipodi:cy="33.021"
     sodipodi:rx="1.594"
     sodipodi:ry="1.594"
     style="fill:#034672"
     transform="translate(4.2666359,0)" /><linearGradient
     id="SVGID_15_"
     gradientUnits="userSpaceOnUse"
     x1="-159.6411"
     y1="118.8945"
     x2="-159.6411"
     y2="118.8945"
     gradientTransform="matrix(1,0,0,-1,198.26664,182.5)"><stop
       offset="0"
       style="stop-color:#F6F6F6"
       id="stop3361" /><stop
       offset="0.5386"
       style="stop-color:#E4E4E4"
       id="stop3363" /><stop
       offset="1"
       style="stop-color:#DADADA"
       id="stop3365" /></linearGradient><path
     d="M 38.625636,63.605"
     id="path3367"
     inkscape:connector-curvature="0"
     style="fill:url(#SVGID_15_)" /></svg>